,
Brought to you by  http://www.scenetime.com/signup.php
 
 Hottest scene tracker on the net !!!   
 
No fake torrents from scenebalance 
shame on those who comment fake before downloading my torrents

    seed back for speed


 



...................................NFO:.................................................General 
Complete name : Kung Fu Dunk 2008 DVDRip Xvid AC3-Freebee.avi 
Format : AVI 
Format/Info : Audio Video Interleave 
File size : 1.40 GiB 
Duration : 1h 38mn 
Overall bit rate : 2 029 Kbps 

Video 
ID : 0 
Format : MPEG-4 Visual 
Format profile : Advanced Simple@L5 
Format settings, BVOP : 2 
Format settings, QPel : Yes 
Format settings, GMC : No warppoints 
Format settings, Matrix : Custom 
Codec ID : XVID 
Codec ID/Hint : XviD 
Duration : 1h 38mn 
Bit rate : 1 573 Kbps 
Width : 720 pixels 
Height : 304 pixels 
Display aspect ratio : 2.35:1 
Frame rate : 23.976 fps 
Color space : YUV 
Chroma subsampling : 4:2:0 
Bit depth : 8 bits 
Scan type : Progressive 
Compression mode : Lossy 
Bits/(Pixel*Frame) : 0.300 
Stream size : 1.09 GiB (78%) 

Audio 
ID : 1 
Format : AC-3 
Format/Info : Audio Coding 3 
Mode extension : CM (complete main) 
Codec ID : 2000 
Duration : 1h 38mn 
Bit rate mode : Constant 
Bit rate : 448 Kbps 
Channel(s) : 6 channels 
Channel positions : Front: L C R, Side: L R, LFE 
Sampling rate : 48.0 KHz 
Bit depth : 16 bits 
Compression mode : Lossy 
Stream size : 317 MiB (22%) 
Alignment : Aligned on interleaves 
Interleave, duration : 64 ms (1.53 video frames) 
Interleave, preload duration : 192 ms 
Title : VTS_01_1 T83 3_2ch 448Kbps DELAY 0ms english 


   
              Language.............: English, Chinese
              Subtitle.............: English
              Imdb-Rating..........: 4.6/10
              Imdb.................: http://www.imdb.com/title/tt0848538/
              Video-Source.........: DVD
              Audio-Source.........: DVD
              Encoder..............: Freebee269
              Plot.................: Orphaned from birth, Fang Shijie
 (Jay Chou) is raised in a martial arts school and becomes a prodigious
 master in kung fu. When he is expelled for getting into a fight and
 destroying a night club, he quickly learns that lightning fast reflexes
 are good for more than just fighting, He agrees to play for a college
 basketball team in hopes of finding his long-lost family. After a dazzling
 display of backboard-breaking slam dunks, alley-oops and gravity-defying
 shots, he emerges as the team s new star player. However, when faced with
 a race to the finals against a team of legendary brutality, he soon
 discovers that skill alone with not bring home the gold.
   
                    
                    Sample Included
                    


                    
                    Greets: All P2P Groups!
                    

 
                                          
                           Respects                  
                    
                     SANTi, TOXiCiNK, LKRG 
                    NPW, FLAWL3SS, BDK, CM8
                      IMAGiNE, ViSiON, Rx  
                          Legion, *THC*